<svg xmlns="http://www.w3.org/2000/svg" version="1.1" viewBox="18.38 81.32 560.36 305.68" width="428.3836420813327" height="233.43561746228872"><path d="M 555.604 88.987 C 548.330 91.294, 542.995 101.159, 543.006 112.288 C 543.011 117.662, 548.232 156.799, 549.505 161 C 551.040 166.068, 558 211.195, 558 216.081 C 558 221.716, 558.119 222, 560.481 222 C 563.413 222, 563.693 221.057, 564.339 209 C 564.746 201.394, 566.145 192.798, 572.964 156 C 576.860 134.976, 579.222 115.603, 578.652 109.336 C 577.267 94.107, 567.276 85.285, 555.604 88.987 M 261.500 105.994 C 243.588 108.581, 225.188 120.656, 213.323 137.610 C 200.817 155.482, 198.404 185.564, 207.820 206.234 C 220.020 233.017, 244.590 249.275, 272.980 249.351 C 304.495 249.435, 330.915 230.492, 341.811 200 C 350.547 175.551, 343.278 145.199, 324.096 126.032 C 311.204 113.150, 296.157 106.438, 278.344 105.623 C 272.380 105.350, 264.800 105.517, 261.500 105.994 M 44.250 115.689 C 45.212 115.941, 46.788 115.941, 47.750 115.689 C 48.712 115.438, 47.925 115.232, 46 115.232 C 44.075 115.232, 43.288 115.438, 44.250 115.689 M 404.264 115.718 C 405.784 115.947, 408.034 115.941, 409.264 115.704 C 410.494 115.467, 409.250 115.279, 406.500 115.286 C 403.750 115.294, 402.744 115.488, 404.264 115.718 M 555 241.767 C 548.178 245.102, 542.992 253.181, 543.010 260.446 C 543.021 265.243, 546.702 273.549, 550.272 276.835 C 555.969 282.077, 566.226 281.621, 571.977 275.869 C 578.692 269.154, 580.354 261.614, 577.053 252.839 C 574.170 245.176, 569.649 241.703, 562.054 241.316 C 558.999 241.161, 555.825 241.363, 555 241.767 M 102.286 337.500 C 102.294 340.250, 102.488 341.256, 102.718 339.736 C 102.947 338.216, 102.941 335.966, 102.704 334.736 C 102.467 333.506, 102.279 334.750, 102.286 337.500 M 102.272 348 C 102.272 350.475, 102.467 351.488, 102.706 350.250 C 102.944 349.012, 102.944 346.988, 102.706 345.750 C 102.467 344.512, 102.272 345.525, 102.272 348" stroke="none" fill="#e91c24" fill-rule="evenodd"/><path d="M 253.500 83.007 C 212.293 92.127, 183.257 124.703, 177.879 167.846 C 175.336 188.241, 181.682 213.329, 193.862 231.039 C 211.635 256.880, 237.974 271.810, 269 273.629 C 284.058 274.512, 299.207 271.452, 314.568 264.426 C 331.949 256.476, 348.490 240.568, 358.682 222 C 369.677 201.969, 372.388 170.753, 365.090 148.211 C 354.588 115.776, 328.706 91.526, 296 83.480 C 292.417 82.598, 283.441 81.686, 276 81.448 C 265.034 81.097, 260.810 81.389, 253.500 83.007 M 261.500 105.994 C 243.588 108.581, 225.188 120.656, 213.323 137.610 C 200.817 155.482, 198.404 185.564, 207.820 206.234 C 220.020 233.017, 244.590 249.275, 272.980 249.351 C 304.495 249.435, 330.915 230.492, 341.811 200 C 350.547 175.551, 343.278 145.199, 324.096 126.032 C 311.204 113.150, 296.157 106.438, 278.344 105.623 C 272.380 105.350, 264.800 105.517, 261.500 105.994 M 21.631 116.497 C 18.553 118.031, 17.976 123.099, 18.610 143 C 19.170 160.581, 20.665 173.505, 23.640 186.500 C 27.230 202.179, 33.480 220.396, 38.173 228.851 C 44.768 240.736, 52.250 251.985, 55.783 255.327 C 61.931 261.145, 65.919 257.936, 77.936 237.500 C 90.338 216.411, 90.135 216.700, 91.505 218.156 C 92.202 218.895, 96.024 225.800, 100 233.500 C 110.517 253.867, 115.390 259.996, 119.676 258.245 C 125.300 255.948, 142.628 232.915, 149.282 218.891 C 160.103 196.084, 166 166.425, 166 134.801 L 166 116.950 163.250 115.886 C 159.874 114.580, 138.172 115.428, 136.675 116.925 C 135.954 117.646, 136.074 120.503, 137.067 126.233 C 138.013 131.690, 138.456 140.958, 138.371 153.500 C 138.253 170.890, 137.983 173.616, 135.186 185.663 C 131.846 200.052, 128.915 207.863, 125.800 210.679 C 123.833 212.456, 123.720 212.423, 121.104 209.291 C 117.304 204.743, 112.038 187.893, 109.796 173.109 C 107.812 160.030, 107.900 143.570, 110.055 124.561 C 110.550 120.195, 110.745 116.412, 110.488 116.154 C 109.857 115.524, 84.899 114.961, 82.982 115.534 C 81.678 115.924, 81.467 119.465, 81.482 140.744 C 81.503 169.027, 79.874 182.716, 74.832 196.650 C 71.459 205.974, 66.704 213.288, 64.327 212.813 C 60.675 212.084, 57.405 202.716, 53.398 181.500 C 51.342 170.616, 50.393 134.727, 51.906 125.085 C 52.655 120.310, 52.725 117.325, 52.102 116.702 C 50.766 115.366, 24.258 115.187, 21.631 116.497 M 382.914 116.020 C 379.226 116.891, 377.788 124.626, 378.548 139.500 C 380.352 174.802, 386.382 202.285, 397.451 225.661 C 402.444 236.207, 413.997 254.184, 417.240 256.456 C 420.383 258.657, 424.312 258.365, 426.746 255.750 C 429.384 252.915, 441.362 233.833, 446.525 224.239 C 448.674 220.245, 450.898 217.123, 451.466 217.300 C 452.035 217.477, 455.875 224.191, 460 232.221 C 470.089 251.862, 475.350 259, 479.734 259 C 480.539 259, 483.234 256.863, 485.722 254.250 C 502.284 236.860, 515.270 212.402, 520.631 188.500 C 525.632 166.200, 526.010 163.240, 526.648 141.396 C 527.471 113.190, 528.396 114.692, 510.501 115.170 C 503.714 115.352, 497.873 115.789, 497.521 116.143 C 497.168 116.497, 497.432 125.047, 498.106 135.143 C 500.144 165.654, 496.831 192.241, 489.225 206.405 C 485.575 213.204, 483.733 213.380, 480.616 207.229 C 471.186 188.620, 468.568 171.443, 469.992 137.520 C 470.477 125.981, 470.648 116.314, 470.372 116.039 C 470.097 115.764, 464.106 115.440, 457.058 115.319 C 440.682 115.040, 440.316 115.253, 441.868 124.165 C 444.147 137.250, 442.942 161.936, 438.924 184.500 C 437.337 193.412, 432.268 206.184, 428.880 209.810 C 425.335 213.603, 424.519 213.722, 422.561 210.734 C 414.609 198.598, 408.298 145.414, 412.472 125.715 C 414.361 116.801, 413.980 116.025, 407.643 115.893 C 388.694 115.499, 385.045 115.517, 382.914 116.020 M 109.342 287.938 C 107.691 288.942, 105.727 291.279, 104.977 293.132 C 103.435 296.941, 102.312 297.963, 99.644 297.985 C 98.624 297.993, 96.394 299.173, 94.690 300.607 C 91.627 303.185, 91.467 303.206, 80.401 302.515 C 62.502 301.397, 62.504 301.394, 61.421 336.576 C 60.675 360.817, 61.225 364.982, 65.858 370.167 C 69.498 374.241, 71.860 373.453, 76.173 366.726 L 79.500 361.538 79.244 342.761 L 78.988 323.983 82.279 320.393 C 84.860 317.576, 86.533 316.694, 90.045 316.298 C 93.909 315.863, 94.880 316.153, 97.148 318.421 C 101.646 322.919, 102.443 328.240, 102.473 354 C 102.500 377.214, 102.531 377.555, 105.013 382 C 108.031 387.404, 111.588 388.432, 114.915 384.861 C 118.477 381.038, 119.224 376.302, 120.019 352.500 C 120.785 329.587, 121.459 325.239, 125 320.377 C 128.366 315.755, 134.399 314.726, 139.586 317.889 C 145.316 321.383, 149.683 334.531, 148.703 345.337 C 148.021 352.860, 146.007 355.558, 139 358.337 C 133.652 360.457, 133.500 360.625, 133.500 364.401 C 133.500 369.672, 136.926 372.222, 144.769 372.790 C 151.957 373.310, 157.246 371.288, 159.835 367.031 C 161.498 364.297, 161.796 360.802, 162.435 336.573 C 163.401 299.936, 163.977 300.914, 141.940 301.782 C 132.113 302.169, 130.132 301.989, 128.725 300.582 C 127.815 299.672, 125.487 298.266, 123.552 297.457 C 121.208 296.478, 119.360 294.666, 118.014 292.027 C 115.264 286.638, 113.133 285.633, 109.342 287.938 M 360.714 288.352 C 359.181 289.607, 357.156 292.124, 356.214 293.946 C 355.011 296.273, 353.312 297.658, 350.512 298.594 C 348.319 299.328, 346.369 300.394, 346.179 300.964 C 345.966 301.603, 341.168 302.001, 333.667 302.004 C 312.989 302.010, 312.731 302.457, 312.593 338.574 L 312.500 362.647 315.539 367.567 C 320.075 374.911, 323.010 374.662, 327.303 366.567 C 329.257 362.885, 329.494 360.656, 329.814 343 C 330.146 324.648, 330.295 323.362, 332.334 321.155 C 337.267 315.815, 343.869 314.536, 348.343 318.055 C 353.065 321.770, 354.070 327.945, 353.872 352.023 C 353.687 374.490, 354.239 378.595, 358.207 384.250 C 362.073 389.761, 367.325 386.718, 370.384 377.193 C 371.499 373.724, 371.978 366.501, 372.220 349.500 C 372.578 324.416, 372.966 322.539, 378.730 317.991 C 380.918 316.264, 382.409 315.906, 385.826 316.288 C 394.586 317.267, 400.004 326.846, 399.995 341.339 C 399.988 351.541, 398.582 354.058, 390.500 358.329 C 386.187 360.609, 384.408 362.149, 384.173 363.808 C 383.022 371.929, 398.981 377.130, 406.913 371.219 C 408.336 370.159, 410.378 367.089, 411.451 364.396 C 413.169 360.086, 413.448 356.376, 413.785 333.404 L 414.168 307.307 411.667 304.404 L 409.165 301.500 395.145 301.801 C 382.175 302.080, 381.048 301.959, 380.098 300.183 C 379.533 299.128, 377.761 298.002, 376.160 297.682 C 374.058 297.262, 372.510 295.840, 370.593 292.568 C 368.402 288.829, 365.325 285.864, 363.816 286.036 C 363.642 286.056, 362.246 287.098, 360.714 288.352 M 479.877 292.460 C 477.649 296.013, 475.078 299.150, 474.163 299.430 C 473.248 299.711, 468.450 300.176, 463.500 300.465 C 452.007 301.134, 450.590 302.419, 449.705 312.974 C 449.010 321.271, 447.586 323.923, 441.538 328.186 C 435.160 332.682, 434.215 334.994, 436.948 339.416 C 438.619 342.119, 440.286 343.314, 443.827 344.345 C 449.008 345.855, 449.657 347.141, 449.882 356.349 C 450.032 362.508, 452.496 367.723, 456.367 370.077 C 458.032 371.090, 462.728 372.456, 466.802 373.113 C 474.076 374.287, 478 376.564, 478 379.612 C 478 381.615, 483.030 387, 484.902 387 C 487.438 387, 491.924 381.860, 493.098 377.609 C 494.370 373, 496.732 372, 506.343 372 C 517.261 372, 521 368.093, 521 356.681 C 521 347.885, 522.317 345.554, 529.584 341.490 C 533.704 339.186, 536 337.269, 536 336.132 C 536 335.076, 533.604 332.787, 530.057 330.455 C 526.789 328.306, 523.597 325.412, 522.965 324.024 C 522.332 322.636, 521.458 317.964, 521.022 313.643 C 519.941 302.924, 518.793 301.865, 507.300 300.976 C 497.228 300.197, 493.405 298.749, 492.562 295.393 C 491.911 292.796, 486.338 286, 484.860 286 C 484.347 286, 482.105 288.907, 479.877 292.460 M 228.251 292.879 C 226.189 296.189, 223.601 299.139, 222.501 299.435 C 221.400 299.731, 217.492 299.979, 213.815 299.986 C 202.070 300.010, 199.546 302.218, 198.100 313.731 C 197.095 321.737, 195.143 325.022, 188.386 330.085 C 185.142 332.516, 184 334.059, 184 336.012 C 184 339.238, 187.231 342.347, 192.258 343.957 C 197.175 345.532, 198 347.338, 198 356.533 C 198 363.810, 198.156 364.344, 201.091 367.085 C 204.134 369.928, 205.587 370.464, 217.500 373.148 C 223.108 374.412, 223.634 374.779, 225.553 378.776 C 230.362 388.788, 235.344 389.439, 240.092 380.673 C 244.120 373.236, 244.770 372.855, 254.488 372.249 C 266.511 371.499, 268.140 369.735, 269.491 356 C 270.404 346.717, 271.016 345.535, 276.283 342.887 C 281.677 340.175, 284 338.114, 284 336.038 C 284 335.129, 281.135 332.282, 277.634 329.711 C 270.811 324.702, 270.037 323.036, 270.011 313.315 C 269.986 303.859, 266.201 301, 253.707 301 C 245.422 301, 244.913 300.692, 239.677 292.500 C 235.054 285.267, 232.950 285.337, 228.251 292.879 M 220.500 316.849 C 213.333 319.433, 210.668 324.423, 210.571 335.439 C 210.485 345.255, 212.924 350.440, 219.368 354.132 C 222.960 356.190, 224.742 356.489, 233 356.412 C 238.225 356.364, 244.378 355.793, 246.674 355.144 C 250.356 354.103, 251.064 353.406, 252.674 349.232 C 255.152 342.809, 255.153 326.935, 252.676 322.259 C 249.754 316.747, 246.858 315.567, 235.573 315.291 C 227.901 315.104, 224.308 315.475, 220.500 316.849 M 472.531 316.767 C 466.359 318.919, 463.671 322.644, 462.036 331.309 C 460.586 338.993, 461.605 343.774, 465.979 349.813 C 470.117 355.524, 476.923 357.523, 488.929 356.554 C 493.643 356.173, 498.605 355.330, 499.956 354.681 C 503.646 352.907, 506.148 345.193, 506.340 335 C 506.516 325.624, 504.982 321.559, 499.812 317.705 C 495.979 314.848, 479.642 314.286, 472.531 316.767 M 228 329.230 C 225.490 331.925, 224.573 335.161, 225.393 338.430 C 226.383 342.375, 228.753 344, 233.515 344 C 238.733 344, 241 341.551, 241 335.914 C 241 328.583, 232.618 324.274, 228 329.230 M 478.589 330.077 C 471.343 338.688, 481.726 349.510, 490.230 342.211 C 491.182 341.394, 492.236 339.260, 492.572 337.468 C 494.235 328.605, 484.263 323.334, 478.589 330.077" stroke="none" fill="#060706" fill-rule="evenodd"/></svg>